<svg width="101" height="100" viewBox="0 0 101 100" fill="none" xmlns="http://www.w3.org/2000/svg">
<mask id="mask0_19_94" style="mask-type:luminance" maskUnits="userSpaceOnUse" x="0" y="0" width="101" height="100">
<path d="M100.952 50C100.952 22.3858 78.3534 0 50.4762 0C22.599 0 0 22.3858 0 50C0 77.6142 22.599 100 50.4762 100C78.3534 100 100.952 77.6142 100.952 50Z" fill="white"/>
</mask>
<g mask="url(#mask0_19_94)">
<path d="M100.952 0H0V100H100.952V0Z" fill="#DECBA0"/>
<path d="M18.6177 14.9523L15.7992 94.9035C15.41 105.943 24.1286 115.204 35.2727 115.589L115.985 118.381C127.13 118.767 136.479 110.13 136.868 99.0915L139.687 19.1402C140.076 8.10123 131.357 -1.16012 120.213 -1.54561L39.5005 -4.33757C28.3564 -4.72306 19.0069 3.91329 18.6177 14.9523Z" fill="#6B9795"/>
<path d="M36.7572 58.8047C36.8554 61.5679 38.4258 64.1673 41.1228 66.0311C43.8198 67.8948 47.4226 68.8703 51.1385 68.7428C54.8544 68.6154 58.3791 67.3955 60.9372 65.3515C63.4953 63.3075 64.8772 60.6068 64.779 57.8436" fill="black"/>
<path d="M37.5703 42.1087C37.5158 40.5752 36.5309 39.3642 35.3706 39.404C34.2102 39.4438 33.3138 40.7193 33.3683 42.2528C33.4229 43.7864 34.4077 44.9973 35.5681 44.9575C36.7284 44.9178 37.6249 43.6423 37.5703 42.1087Z" fill="black"/>
<path d="M65.5956 41.1393C65.5411 39.6057 64.5562 38.3948 63.3958 38.4346C62.2355 38.4743 61.339 39.7498 61.3936 41.2833C61.4481 42.8169 62.433 44.0278 63.5933 43.9881C64.7537 43.9483 65.6501 42.6728 65.5956 41.1393Z" fill="black"/>
</g>
</svg>
