<svg width="35" height="20" viewBox="0 0 35 20" fill="none" xmlns="http://www.w3.org/2000/svg">
<path d="M0 18.3333C0 19.2538 0.746192 20 1.66667 20H33.3333C34.2538 20 35 19.2538 35 18.3333V18.3333C35 17.4129 34.2538 16.6667 33.3333 16.6667H1.66667C0.746194 16.6667 0 17.4129 0 18.3333V18.3333ZM0 10C0 10.9205 0.746192 11.6667 1.66667 11.6667H17.5H33.3333C34.2538 11.6667 35 10.9205 35 10V10C35 9.07953 34.2538 8.33333 33.3333 8.33333H17.5H1.66667C0.746192 8.33333 0 9.07953 0 10V10ZM1.66667 0C0.746194 0 0 0.746192 0 1.66667V1.66667C0 2.58714 0.746192 3.33333 1.66667 3.33333H33.3333C34.2538 3.33333 35 2.58714 35 1.66667V1.66667C35 0.746192 34.2538 0 33.3333 0H1.66667Z" fill="white"/>
</svg>
