<svg width="18" height="18" viewBox="0 0 18 18" fill="none" xmlns="http://www.w3.org/2000/svg">
<mask id="path-1-inside-1_150_599" fill="white">
<path d="M16 16H2V2H9V0H2C1.46957 0 0.960859 0.210714 0.585786 0.585786C0.210714 0.960859 0 1.46957 0 2V16C0 16.5304 0.210714 17.0391 0.585786 17.4142C0.960859 17.7893 1.46957 18 2 18H16C17.1 18 18 17.1 18 16V9H16V16ZM11 0V2H14.59L4.76 11.83L6.17 13.24L16 3.41V7H18V0H11Z"/>
</mask>
<path d="M16 16V18H18V16H16ZM2 16H0V18H2V16ZM2 2V0H0V2H2ZM9 2V4H11V2H9ZM9 0H11V-2H9V0ZM2 0L2 -2L2 0ZM0 2H-2H0ZM0 16H-2H0ZM18 9H20V7H18V9ZM16 9V7H14V9H16ZM11 0V-2H9V0H11ZM11 2H9V4H11V2ZM14.59 2L16.0042 3.41421L19.4184 0L14.59 0V2ZM4.76 11.83L3.34579 10.4158L1.93157 11.83L3.34579 13.2442L4.76 11.83ZM6.17 13.24L4.75579 14.6542L6.17 16.0684L7.58421 14.6542L6.17 13.24ZM16 3.41H18V-1.41843L14.5858 1.99579L16 3.41ZM16 7H14V9H16V7ZM18 7V9H20V7H18ZM18 0H20V-2H18V0ZM16 14H2V18H16V14ZM4 16V2H0V16H4ZM2 4H9V0H2V4ZM11 2V0H7V2H11ZM9 -2H2V2H9V-2ZM2 -2C0.939134 -2 -0.0782815 -1.57857 -0.828427 -0.828427L2 2L2 2L2 -2ZM-0.828427 -0.828427C-1.57857 -0.0782815 -2 0.939134 -2 2L2 2L2 2L-0.828427 -0.828427ZM-2 2V16H2V2H-2ZM-2 16C-2 17.0609 -1.57857 18.0783 -0.828427 18.8284L2 16L2 16L-2 16ZM-0.828427 18.8284C-0.0782823 19.5786 0.939133 20 2 20V16L2 16L-0.828427 18.8284ZM2 20H16V16H2V20ZM16 20C18.2046 20 20 18.2046 20 16H16V20ZM20 16V9H16V16H20ZM18 7H16V11H18V7ZM14 9V16H18V9H14ZM9 0V2H13V0H9ZM11 4H14.59V0H11V4ZM13.1758 0.585786L3.34579 10.4158L6.17421 13.2442L16.0042 3.41421L13.1758 0.585786ZM3.34579 13.2442L4.75579 14.6542L7.58421 11.8258L6.17421 10.4158L3.34579 13.2442ZM7.58421 14.6542L17.4142 4.82421L14.5858 1.99579L4.75579 11.8258L7.58421 14.6542ZM14 3.41V7H18V3.41H14ZM16 9H18V5H16V9ZM20 7V0H16V7H20ZM18 -2H11V2H18V-2Z" fill="#323232" mask="url(#path-1-inside-1_150_599)"/>
</svg>
